<?xml version="1.0" standalone="no"?>
<!DOCTYPE svg PUBLIC "-//W3C//DTD SVG 20010904//EN"
 "http://www.w3.org/TR/2001/REC-SVG-20010904/DTD/svg10.dtd">
<svg version="1.0" xmlns="http://www.w3.org/2000/svg"
 width="564.000000pt" height="564.000000pt" viewBox="0 0 564.000000 564.000000"
 preserveAspectRatio="xMidYMid meet">

<g transform="translate(0.000000,564.000000) scale(0.100000,-0.100000)"
fill="#000000" stroke="none">
<path d="M1753 3919 c-2 -26 -6 -30 -32 -32 -18 -1 -26 -15 -22 -40 1 -4 -12
-10 -29 -13 -23 -5 -30 -12 -30 -30 0 -17 -6 -23 -27 -26 -22 -2 -29 -9 -31
-30 -3 -23 -8 -28 -30 -28 l-27 0 2 -632 c1 -348 5 -638 7 -645 5 -11 94 -13
473 -13 l468 1 5 -508 5 -508 670 0 670 0 3 28 c2 15 10 28 18 28 8 1 20 2 27
3 6 1 12 12 12 26 0 20 6 26 28 28 21 3 27 9 27 28 0 20 5 24 30 24 27 0 30 3
30 30 0 27 3 30 30 30 l30 0 0 1040 0 1040 -25 0 -25 0 0 -984 c0 -779 -3
-985 -12 -987 -7 -2 -277 -3 -600 -1 l-588 3 0 505 0 504 -475 0 -475 0 -2
523 c-1 287 -2 538 -3 557 -1 19 0 41 3 48 3 9 210 12 988 12 977 0 984 0 984
20 0 20 -7 20 -1038 20 l-1038 0 -1 -21z m55 -646 l-3 -568 -27 3 c-25 3 -28
0 -28 -27 0 -28 -3 -31 -30 -31 -27 0 -30 -3 -30 -30 0 -25 -4 -30 -25 -30
-20 0 -25 -5 -25 -25 0 -21 -5 -25 -29 -25 -18 0 -31 6 -35 17 -4 9 -6 263 -5
565 l2 548 28 0 c26 0 29 4 29 30 0 27 3 30 31 30 27 0 30 3 27 28 -3 24 0 27
25 24 24 -3 27 0 27 27 0 29 3 31 35 31 l35 0 -2 -567z m830 -568 c22 -8 10
-50 -15 -53 -17 -3 -23 -10 -23 -28 0 -20 -5 -24 -30 -24 -27 0 -30 -3 -30
-30 0 -27 -3 -30 -30 -30 -27 0 -30 -3 -30 -30 l0 -30 -395 0 -395 0 0 30 c0
25 4 30 25 30 21 0 25 5 25 30 0 27 3 30 30 30 27 0 30 3 30 30 0 27 3 30 30
30 26 0 30 4 30 28 l0 27 382 -3 c211 -1 389 -5 396 -7z m132 -529 l0 -485
-27 -3 c-22 -2 -29 -9 -31 -30 -3 -22 -9 -28 -28 -28 -20 0 -24 -5 -24 -30 0
-27 -3 -30 -30 -30 -27 0 -30 -3 -30 -30 0 -28 -3 -30 -35 -30 l-35 0 0 490 0
490 25 0 c21 0 25 5 25 30 0 27 3 30 30 30 27 0 30 3 30 29 0 25 4 30 28 33
19 2 28 9 30 26 3 18 10 22 38 22 l34 0 0 -484z m1174 -492 c12 -31 6 -44 -19
-44 -20 0 -27 -6 -31 -30 -5 -23 -12 -30 -30 -30 -20 0 -24 -5 -24 -30 0 -26
-3 -30 -29 -30 -24 0 -30 -5 -34 -30 l-6 -30 -555 0 c-358 0 -557 4 -561 10
-3 5 -8 19 -10 30 -3 16 2 20 26 20 26 0 29 3 29 30 0 27 3 30 30 30 27 0 30
3 30 30 0 27 3 30 30 30 27 0 30 3 30 30 l0 30 559 0 c500 0 559 -2 565 -16z"/>
<path d="M3840 3865 c0 -22 4 -26 23 -23 14 2 22 10 22 23 0 13 -8 21 -22 23
-19 3 -23 -1 -23 -23z"/>
<path d="M3894 3815 c-8 -20 4 -35 27 -35 14 0 19 7 19 25 0 18 -5 25 -20 25
-11 0 -23 -7 -26 -15z"/>
<path d="M3957 3773 c-4 -3 -7 -15 -7 -25 0 -13 7 -18 25 -18 20 0 25 5 25 25
0 18 -5 25 -18 25 -10 0 -22 -3 -25 -7z"/>
</g>
</svg>
