<?xml version="1.0" standalone="no"?>
<!DOCTYPE svg PUBLIC "-//W3C//DTD SVG 20010904//EN"
 "http://www.w3.org/TR/2001/REC-SVG-20010904/DTD/svg10.dtd">
<svg version="1.0" xmlns="http://www.w3.org/2000/svg"
 width="564.000000pt" height="564.000000pt" viewBox="0 0 564.000000 564.000000"
 preserveAspectRatio="xMidYMid meet">

<g transform="translate(0.000000,564.000000) scale(0.100000,-0.100000)"
fill="#000000" stroke="none">
<path d="M1753 3919 c-2 -26 -6 -30 -32 -32 -18 -1 -26 -15 -22 -40 1 -4 -12
-10 -29 -13 -23 -5 -30 -12 -30 -30 0 -17 -6 -23 -27 -26 -22 -2 -29 -9 -31
-30 -3 -23 -8 -28 -30 -28 l-27 0 2 -632 c1 -348 5 -638 7 -645 5 -11 212 -13
1142 -13 625 0 1139 -2 1142 -4 9 -10 52 27 52 45 0 14 7 19 25 19 21 0 25 5
25 30 0 27 3 30 30 30 27 0 30 3 30 29 0 23 5 30 23 33 12 2 26 13 32 26 5 12
13 22 17 22 5 0 8 239 8 530 l0 530 -25 0 -25 0 0 -480 0 -480 -1075 0 -1075
0 -2 523 c-1 287 -2 538 -3 557 -1 19 0 41 3 48 3 9 210 12 988 12 977 0 984
0 984 20 0 20 -7 20 -1038 20 l-1038 0 -1 -21z m55 -646 l-3 -568 -27 3 c-25
3 -28 0 -28 -27 0 -28 -3 -31 -30 -31 -27 0 -30 -3 -30 -30 0 -25 -4 -30 -25
-30 -20 0 -25 -5 -25 -25 0 -21 -5 -25 -29 -25 -18 0 -31 6 -35 17 -4 9 -6
263 -5 565 l2 548 28 0 c26 0 29 4 29 30 0 27 3 30 31 30 27 0 30 3 27 28 -3
24 0 27 25 24 24 -3 27 0 27 27 0 29 3 31 35 31 l35 0 -2 -567z m2170 -568
c22 -8 10 -50 -15 -53 -17 -3 -23 -10 -23 -28 0 -20 -5 -24 -30 -24 -27 0 -30
-3 -30 -30 0 -27 -3 -30 -30 -30 -27 0 -30 -3 -30 -30 l0 -30 -1065 0 -1065 0
0 30 c0 25 4 30 25 30 21 0 25 5 25 30 0 27 3 30 30 30 27 0 30 3 30 30 0 27
3 30 30 30 26 0 30 4 30 28 l0 27 1052 -3 c579 -1 1059 -4 1066 -7z"/>
<path d="M3840 3865 c0 -22 4 -26 23 -23 14 2 22 10 22 23 0 13 -8 21 -22 23
-19 3 -23 -1 -23 -23z"/>
<path d="M3894 3815 c-8 -20 4 -35 27 -35 14 0 19 7 19 25 0 18 -5 25 -20 25
-11 0 -23 -7 -26 -15z"/>
<path d="M3957 3773 c-4 -3 -7 -15 -7 -25 0 -13 7 -18 25 -18 20 0 25 5 25 25
0 18 -5 25 -18 25 -10 0 -22 -3 -25 -7z"/>
</g>
</svg>
