<?xml version="1.0" standalone="no"?>
<!DOCTYPE svg PUBLIC "-//W3C//DTD SVG 20010904//EN"
 "http://www.w3.org/TR/2001/REC-SVG-20010904/DTD/svg10.dtd">
<svg version="1.0" xmlns="http://www.w3.org/2000/svg"
 width="800.000000pt" height="800.000000pt" viewBox="0 0 800.000000 800.000000"
 preserveAspectRatio="xMidYMid meet">

<g transform="translate(0.000000,800.000000) scale(0.100000,-0.100000)"
fill="#000000" stroke="none">
<path d="M3000 7125 l0 -125 -247 -2 -248 -3 -3 -122 -3 -123 -247 -2 -247 -3
-3 -122 -3 -123 -247 -2 -247 -3 -3 -122 -3 -122 -122 -3 -122 -3 -3 -247 -2
-248 -125 0 -125 0 0 -500 0 -500 125 0 125 0 0 -125 0 -125 -125 0 -125 0 2
-372 3 -373 122 -3 122 -3 3 -122 3 -122 122 -3 122 -3 3 -122 3 -122 122 -3
123 -3 2 -247 3 -247 122 -3 122 -3 3 -122 3 -122 122 -3 122 -3 3 -122 3
-122 123 -3 122 -3 0 -124 0 -125 250 0 250 0 0 -125 0 -125 -375 0 -375 0 0
-125 0 -125 -125 0 -125 0 0 -125 0 -125 -125 0 -125 0 0 -125 0 -125 -125 0
-125 0 0 -500 0 -500 375 0 375 0 0 125 0 125 125 0 125 0 0 -125 0 -125 1500
0 1500 0 0 125 0 125 125 0 125 0 0 -125 0 -125 250 0 250 0 0 125 0 125 125
0 125 0 0 375 0 375 -125 0 -125 0 0 125 0 125 -125 0 -125 0 0 125 0 125
-125 0 -125 0 0 125 0 125 -375 0 -375 0 0 125 0 125 250 0 250 0 0 125 0 124
123 3 122 3 3 122 3 122 122 3 122 3 3 122 3 122 122 3 122 3 3 247 2 247 123
3 122 3 3 122 3 122 122 3 122 3 3 123 3 122 124 0 125 0 0 375 0 375 -125 0
-125 0 0 125 0 125 125 0 125 0 -2 623 -3 622 -122 3 -123 3 0 124 0 125 -125
0 -124 0 -3 123 -3 122 -122 3 -122 3 -3 122 -3 122 -372 3 -372 2 -3 123 -3
122 -122 3 -122 3 -3 122 -3 122 -1122 3 -1123 2 0 -125z m2000 -1750 l0 -125
125 0 125 0 0 -125 0 -125 250 0 250 0 0 -250 0 -250 125 0 125 0 0 -625 0
-625 -250 0 -250 0 0 -250 0 -250 -125 0 -125 0 0 -125 0 -125 -250 0 -250 0
0 125 0 125 -750 0 -750 0 0 -125 0 -125 -250 0 -250 0 0 125 0 125 -125 0
-125 0 0 125 0 125 -125 0 -125 0 0 125 0 125 -125 0 -125 0 0 625 0 625 125
0 125 0 0 250 0 250 125 0 125 0 0 125 0 125 250 0 250 0 0 125 0 125 1000 0
1000 0 0 -125z m-3250 -1000 l0 -125 -125 0 -125 0 0 -125 0 -125 125 0 125 0
0 -250 0 -250 -125 0 -125 0 0 250 0 250 -125 0 -125 0 0 250 0 250 250 0 250
0 0 -125z m5000 -125 l0 -250 -125 0 -125 0 0 -250 0 -250 -125 0 -125 0 0
250 0 250 125 0 125 0 0 125 0 125 -125 0 -125 0 0 125 0 125 250 0 250 0 0
-250z m-2250 -2000 l0 -250 -125 0 -125 0 0 125 0 125 -250 0 -250 0 0 -125 0
-125 -125 0 -125 0 0 250 0 250 500 0 500 0 0 -250z m-1250 -875 l0 -125 125
0 125 0 0 125 0 125 500 0 500 0 0 -125 0 -125 125 0 125 0 0 125 0 125 375 0
375 0 0 -125 0 -125 125 0 125 0 0 -125 0 -125 125 0 125 0 0 -125 0 -125 125
0 125 0 0 -250 0 -250 -250 0 -250 0 0 250 0 250 -125 0 -125 0 0 -250 0 -250
-1500 0 -1500 0 0 250 0 250 -125 0 -125 0 0 -250 0 -250 -250 0 -250 0 0 250
0 250 125 0 125 0 0 125 0 125 125 0 125 0 0 125 0 125 125 0 125 0 0 125 0
125 375 0 375 0 0 -125z"/>
<path d="M2500 4375 l0 -125 625 0 625 0 0 125 0 125 -625 0 -625 0 0 -125z"/>
<path d="M4250 4375 l0 -125 625 0 625 0 0 125 0 125 -625 0 -625 0 0 -125z"/>
<path d="M3000 3875 l0 -125 -125 0 -125 0 0 -375 0 -375 375 0 375 0 0 500 0
500 -250 0 -250 0 0 -125z"/>
<path d="M4750 3875 l0 -125 -125 0 -125 0 0 -375 0 -375 375 0 375 0 0 500 0
500 -250 0 -250 0 0 -125z"/>
<path d="M3500 1125 l0 -125 500 0 500 0 0 125 0 125 -500 0 -500 0 0 -125z"/>
</g>
</svg>
