<svg id="visual" viewBox="0 0 675 900" width="675" height="900" xmlns="http://www.w3.org/2000/svg" xmlns:xlink="http://www.w3.org/1999/xlink" version="1.1"><rect x="0" y="0" width="675" height="900" fill="#001220"></rect><defs><linearGradient id="grad1_0" x1="0%" y1="0%" x2="100%" y2="100%"><stop offset="30%" stop-color="#8a661d" stop-opacity="1"></stop><stop offset="70%" stop-color="#8a661d" stop-opacity="1"></stop></linearGradient></defs><defs><linearGradient id="grad1_1" x1="0%" y1="0%" x2="100%" y2="100%"><stop offset="30%" stop-color="#8a661d" stop-opacity="1"></stop><stop offset="70%" stop-color="#89452e" stop-opacity="1"></stop></linearGradient></defs><defs><linearGradient id="grad1_2" x1="0%" y1="0%" x2="100%" y2="100%"><stop offset="30%" stop-color="#722f3e" stop-opacity="1"></stop><stop offset="70%" stop-color="#89452e" stop-opacity="1"></stop></linearGradient></defs><defs><linearGradient id="grad1_3" x1="0%" y1="0%" x2="100%" y2="100%"><stop offset="30%" stop-color="#722f3e" stop-opacity="1"></stop><stop offset="70%" stop-color="#4b2643" stop-opacity="1"></stop></linearGradient></defs><defs><linearGradient id="grad1_4" x1="0%" y1="0%" x2="100%" y2="100%"><stop offset="30%" stop-color="#211e38" stop-opacity="1"></stop><stop offset="70%" stop-color="#4b2643" stop-opacity="1"></stop></linearGradient></defs><defs><linearGradient id="grad1_5" x1="0%" y1="0%" x2="100%" y2="100%"><stop offset="30%" stop-color="#211e38" stop-opacity="1"></stop><stop offset="70%" stop-color="#001220" stop-opacity="1"></stop></linearGradient></defs><defs><linearGradient id="grad2_0" x1="0%" y1="0%" x2="100%" y2="100%"><stop offset="30%" stop-color="#8a661d" stop-opacity="1"></stop><stop offset="70%" stop-color="#8a661d" stop-opacity="1"></stop></linearGradient></defs><defs><linearGradient id="grad2_1" x1="0%" y1="0%" x2="100%" y2="100%"><stop offset="30%" stop-color="#89452e" stop-opacity="1"></stop><stop offset="70%" stop-color="#8a661d" stop-opacity="1"></stop></linearGradient></defs><defs><linearGradient id="grad2_2" x1="0%" y1="0%" x2="100%" y2="100%"><stop offset="30%" stop-color="#89452e" stop-opacity="1"></stop><stop offset="70%" stop-color="#722f3e" stop-opacity="1"></stop></linearGradient></defs><defs><linearGradient id="grad2_3" x1="0%" y1="0%" x2="100%" y2="100%"><stop offset="30%" stop-color="#4b2643" stop-opacity="1"></stop><stop offset="70%" stop-color="#722f3e" stop-opacity="1"></stop></linearGradient></defs><defs><linearGradient id="grad2_4" x1="0%" y1="0%" x2="100%" y2="100%"><stop offset="30%" stop-color="#4b2643" stop-opacity="1"></stop><stop offset="70%" stop-color="#211e38" stop-opacity="1"></stop></linearGradient></defs><defs><linearGradient id="grad2_5" x1="0%" y1="0%" x2="100%" y2="100%"><stop offset="30%" stop-color="#001220" stop-opacity="1"></stop><stop offset="70%" stop-color="#211e38" stop-opacity="1"></stop></linearGradient></defs><g transform="translate(675, 0)"><path d="M0 562.5C-64.8 540.7 -129.6 518.9 -206.3 498C-283 477 -371.6 456.9 -397.7 397.7C-423.9 338.6 -387.6 240.4 -404.7 167.6C-421.7 94.8 -492.1 47.4 -562.5 0L0 0Z" fill="#0f192d"></path><path d="M0 468.8C-54 450.6 -108 432.4 -171.9 415C-235.8 397.5 -309.7 380.7 -331.5 331.5C-353.3 282.2 -323 200.3 -337.2 139.7C-351.4 79 -410.1 39.5 -468.7 0L0 0Z" fill="#36233f"></path><path d="M0 375C-43.2 360.5 -86.4 345.9 -137.5 332C-188.6 318 -247.7 304.6 -265.2 265.2C-282.6 225.7 -258.4 160.3 -269.8 111.7C-281.1 63.2 -328.1 31.6 -375 0L0 0Z" fill="#602943"></path><path d="M0 281.3C-32.4 270.4 -64.8 259.5 -103.1 249C-141.5 238.5 -185.8 228.4 -198.9 198.9C-212 169.3 -193.8 120.2 -202.3 83.8C-210.9 47.4 -246.1 23.7 -281.2 0L0 0Z" fill="#803837"></path><path d="M0 187.5C-21.6 180.2 -43.2 173 -68.8 166C-94.3 159 -123.9 152.3 -132.6 132.6C-141.3 112.9 -129.2 80.1 -134.9 55.9C-140.6 31.6 -164 15.8 -187.5 0L0 0Z" fill="#8d5524"></path><path d="M0 93.8C-10.8 90.1 -21.6 86.5 -34.4 83C-47.2 79.5 -61.9 76.1 -66.3 66.3C-70.7 56.4 -64.6 40.1 -67.4 27.9C-70.3 15.8 -82 7.9 -93.7 0L0 0Z" fill="#8a661d"></path></g><g transform="translate(0, 900)"><path d="M0 -562.5C85.7 -566.7 171.4 -571 215.3 -519.7C259.1 -468.4 261.2 -361.6 305.5 -305.5C349.7 -249.3 436.1 -243.8 486 -201.3C535.8 -158.8 549.2 -79.4 562.5 0L0 0Z" fill="#0f192d"></path><path d="M0 -468.7C71.4 -472.3 142.8 -475.8 179.4 -433.1C216 -390.3 217.7 -301.4 254.6 -254.6C291.4 -207.8 363.4 -203.1 405 -167.7C446.5 -132.3 457.6 -66.2 468.8 0L0 0Z" fill="#36233f"></path><path d="M0 -375C57.1 -377.8 114.2 -380.6 143.5 -346.5C172.8 -312.3 174.2 -241.1 203.6 -203.6C233.1 -166.2 290.7 -162.5 324 -134.2C357.2 -105.9 366.1 -52.9 375 0L0 0Z" fill="#602943"></path><path d="M0 -281.2C42.8 -283.4 85.7 -285.5 107.6 -259.8C129.6 -234.2 130.6 -180.8 152.7 -152.7C174.9 -124.7 218 -121.9 243 -100.6C267.9 -79.4 274.6 -39.7 281.3 0L0 0Z" fill="#803837"></path><path d="M0 -187.5C28.6 -188.9 57.1 -190.3 71.8 -173.2C86.4 -156.1 87.1 -120.5 101.8 -101.8C116.6 -83.1 145.4 -81.3 162 -67.1C178.6 -52.9 183.1 -26.5 187.5 0L0 0Z" fill="#8d5524"></path><path d="M0 -93.7C14.3 -94.5 28.6 -95.2 35.9 -86.6C43.2 -78.1 43.5 -60.3 50.9 -50.9C58.3 -41.6 72.7 -40.6 81 -33.5C89.3 -26.5 91.5 -13.2 93.8 0L0 0Z" fill="#8a661d"></path></g></svg>