<?xml version="1.0" standalone="no"?>
<!DOCTYPE svg PUBLIC "-//W3C//DTD SVG 20010904//EN"
 "http://www.w3.org/TR/2001/REC-SVG-20010904/DTD/svg10.dtd">
<svg version="1.0" xmlns="http://www.w3.org/2000/svg"
 width="9984.000000pt" height="9984.000000pt" viewBox="0 0 9984.000000 9984.000000"
 preserveAspectRatio="xMidYMid meet">

<g transform="translate(0.000000,9984.000000) scale(0.100000,-0.100000)"
fill="#000000" stroke="none">
<path d="M49065 99604 c-3627 -73 -6945 -492 -10455 -1319 -1192 -281 -1866
-456 -2795 -726 -4916 -1430 -9620 -3660 -13850 -6567 -3126 -2148 -5755
-4389 -8216 -7002 -1749 -1857 -3333 -3834 -4901 -6115 -2213 -3220 -4042
-6731 -5420 -10400 -676 -1801 -1285 -3786 -1723 -5615 -380 -1585 -580 -2538
-779 -3710 -389 -2286 -590 -4318 -678 -6835 -17 -479 -17 -2311 0 -2790 88
-2517 289 -4549 678 -6835 311 -1828 819 -4033 1355 -5875 1432 -4920 3660
-9619 6567 -13850 2150 -3129 4381 -5746 7002 -8216 1849 -1743 3835 -3334
6115 -4901 3076 -2113 6439 -3889 9915 -5235 2069 -801 4121 -1437 6330 -1963
1433 -341 2353 -533 3480 -724 2283 -388 4345 -593 6835 -678 492 -17 2298
-17 2790 0 2903 99 5348 372 8025 897 1268 248 2870 628 4140 981 3986 1109
7817 2730 11410 4829 1541 901 3006 1869 4580 3029 3799 2798 7156 6110 9991
9856 2666 3523 4711 7065 6348 10997 940 2259 1753 4757 2330 7158 375 1563
575 2519 775 3695 389 2284 591 4323 678 6835 17 479 17 2311 0 2790 -87 2499
-290 4553 -673 6805 -315 1857 -821 4051 -1360 5905 -1310 4502 -3277 8799
-5837 12755 -662 1023 -1488 2199 -2261 3220 -2816 3721 -6163 7028 -9921
9805 -2551 1884 -4980 3375 -7632 4684 -3311 1635 -6656 2839 -10278 3701
-1032 246 -1568 364 -2290 505 -2623 514 -5086 793 -7855 891 -394 13 -2029
26 -2420 18z m1795 -2544 c1799 -38 3414 -154 5145 -371 1883 -235 3843 -600
5460 -1016 4958 -1273 9680 -3334 14010 -6113 1596 -1025 3044 -2090 4560
-3354 1687 -1407 3333 -2985 4816 -4616 1426 -1569 2775 -3262 3881 -4870
3065 -4458 5364 -9422 6777 -14630 269 -995 430 -1681 640 -2740 1226 -6180
1226 -12680 0 -18860 -171 -862 -303 -1447 -480 -2135 -1285 -4975 -3330
-9657 -6109 -13990 -885 -1378 -1827 -2682 -2873 -3975 -1508 -1863 -3159
-3620 -4932 -5250 -1539 -1415 -3300 -2830 -4915 -3950 -300 -207 -1054 -710
-1365 -910 -4333 -2779 -9014 -4824 -13990 -6109 -688 -177 -1273 -309 -2135
-480 -6180 -1226 -12680 -1226 -18860 0 -862 171 -1447 303 -2135 480 -5249
1356 -10165 3554 -14675 6560 -1336 891 -2491 1754 -3790 2833 -1701 1413
-3357 2993 -4851 4631 -1401 1537 -2754 3225 -3849 4805 -207 300 -710 1054
-910 1365 -2779 4333 -4824 9015 -6109 13990 -317 1230 -617 2723 -845 4220
-848 5545 -723 11295 365 16775 209 1055 372 1749 640 2740 1413 5208 3713
10172 6777 14630 1171 1703 2635 3525 4142 5155 746 806 1701 1768 2490 2506
1714 1603 3586 3117 5385 4354 4626 3182 9812 5541 15250 6938 707 182 1255
305 2115 476 3372 669 6943 983 10370 911z"/>
<path d="M46790 68650 l0 -15600 -15600 0 -15600 0 0 -1560 0 -1560 15600 0
15600 0 0 -17160 0 -17160 1560 0 1560 0 0 17160 0 17160 17160 0 17160 0 0
1560 0 1560 -17160 0 -17160 0 0 15600 0 15600 -1560 0 -1560 0 0 -15600z"/>
</g>
</svg>
