<?xml version="1.0" standalone="no"?>
<!DOCTYPE svg PUBLIC "-//W3C//DTD SVG 20010904//EN"
 "http://www.w3.org/TR/2001/REC-SVG-20010904/DTD/svg10.dtd">
<svg version="1.0" xmlns="http://www.w3.org/2000/svg"
 width="9984.000000pt" height="9984.000000pt" viewBox="0 0 9984.000000 9984.000000"
 preserveAspectRatio="xMidYMid meet">

<g transform="translate(0.000000,9984.000000) scale(0.100000,-0.100000)"
fill="#000000" stroke="none">
<path d="M43670 98285 l0 -1555 -1560 0 -1560 0 0 -1560 0 -1560 -1560 0
-1560 0 0 -1560 0 -1560 -1560 0 -1560 0 0 -1560 0 -1560 -1560 0 -1560 0 0
-1560 0 -1560 -1560 0 -1560 0 0 -1560 0 -1560 -1560 0 -1560 0 0 -1560 0
-1560 -1560 0 -1560 0 0 -1560 0 -1560 -1560 0 -1560 0 0 -1560 0 -1560 -1560
0 -1560 0 0 -1560 0 -1560 -1560 0 -1560 0 0 -1560 0 -1560 -1560 0 -1560 0 0
-1560 0 -1560 -1560 0 -1560 0 0 -1560 0 -1560 -1560 0 -1560 0 0 -1560 0
-1560 -1555 0 -1555 0 0 -4680 0 -4680 1555 0 1555 0 0 -1560 0 -1560 1560 0
1560 0 0 -1560 0 -1560 1560 0 1560 0 0 -1560 0 -1560 1560 0 1560 0 0 -1560
0 -1560 1560 0 1560 0 0 -1560 0 -1560 1560 0 1560 0 0 -1560 0 -1560 1560 0
1560 0 0 -1560 0 -1560 1560 0 1560 0 0 -1560 0 -1560 1560 0 1560 0 0 -1560
0 -1560 1560 0 1560 0 0 -1560 0 -1560 1560 0 1560 0 0 -1560 0 -1560 1560 0
1560 0 0 -1560 0 -1560 1560 0 1560 0 0 -1560 0 -1560 1560 0 1560 0 0 -1560
0 -1560 6240 0 6240 0 0 1560 0 1560 1560 0 1560 0 0 1560 0 1560 1560 0 1560
0 0 1560 0 1560 1560 0 1560 0 0 1560 0 1560 1560 0 1560 0 0 1560 0 1560
1560 0 1560 0 0 1560 0 1560 1560 0 1560 0 0 1560 0 1560 1560 0 1560 0 0
1560 0 1560 1560 0 1560 0 0 1560 0 1560 1560 0 1560 0 0 1560 0 1560 1560 0
1560 0 0 1560 0 1560 1560 0 1560 0 0 1560 0 1560 1560 0 1560 0 0 1560 0
1560 1560 0 1560 0 0 1560 0 1560 1565 0 1565 0 0 4680 0 4680 -1565 0 -1565
0 0 1560 0 1560 -1560 0 -1560 0 0 1560 0 1560 -1560 0 -1560 0 0 1560 0 1560
-1560 0 -1560 0 0 1560 0 1560 -1560 0 -1560 0 0 1560 0 1560 -1560 0 -1560 0
0 1560 0 1560 -1560 0 -1560 0 0 1560 0 1560 -1560 0 -1560 0 0 1560 0 1560
-1560 0 -1560 0 0 1560 0 1560 -1560 0 -1560 0 0 1560 0 1560 -1560 0 -1560 0
0 1560 0 1560 -1560 0 -1560 0 0 1560 0 1560 -1560 0 -1560 0 0 1560 0 1560
-1560 0 -1560 0 0 1555 0 1555 -6240 0 -6240 0 0 -1555z m9360 -3115 l0 -1560
1560 0 1560 0 0 -1560 0 -1560 1560 0 1560 0 0 -1560 0 -1560 1560 0 1560 0 0
-1560 0 -1560 1560 0 1560 0 0 -1560 0 -1560 1560 0 1560 0 0 -1560 0 -1560
1560 0 1560 0 0 -1560 0 -1560 1560 0 1560 0 0 -1560 0 -1560 1560 0 1560 0 0
-1560 0 -1560 1560 0 1560 0 0 -1560 0 -1560 1560 0 1560 0 0 -1560 0 -1560
1560 0 1560 0 0 -1560 0 -1560 1560 0 1560 0 0 -1560 0 -1560 1560 0 1560 0 0
-1560 0 -1560 1560 0 1560 0 0 -1560 0 -1560 -1560 0 -1560 0 0 -1560 0 -1560
-1560 0 -1560 0 0 -1560 0 -1560 -1560 0 -1560 0 0 -1560 0 -1560 -1560 0
-1560 0 0 -1560 0 -1560 -1560 0 -1560 0 0 -1560 0 -1560 -1560 0 -1560 0 0
-1560 0 -1560 -1560 0 -1560 0 0 -1560 0 -1560 -1560 0 -1560 0 0 -1560 0
-1560 -1560 0 -1560 0 0 -1560 0 -1560 -1560 0 -1560 0 0 -1560 0 -1560 -1560
0 -1560 0 0 -1560 0 -1560 -1560 0 -1560 0 0 -1560 0 -1560 -1560 0 -1560 0 0
-1560 0 -1560 -1560 0 -1560 0 0 -1560 0 -1560 -3120 0 -3120 0 0 1560 0 1560
-1560 0 -1560 0 0 1560 0 1560 -1560 0 -1560 0 0 1560 0 1560 -1560 0 -1560 0
0 1560 0 1560 -1560 0 -1560 0 0 1560 0 1560 -1560 0 -1560 0 0 1560 0 1560
-1560 0 -1560 0 0 1560 0 1560 -1560 0 -1560 0 0 1560 0 1560 -1560 0 -1560 0
0 1560 0 1560 -1560 0 -1560 0 0 1560 0 1560 -1560 0 -1560 0 0 1560 0 1560
-1560 0 -1560 0 0 1560 0 1560 -1560 0 -1560 0 0 1560 0 1560 -1560 0 -1560 0
0 1560 0 1560 -1560 0 -1560 0 0 1560 0 1560 1560 0 1560 0 0 1560 0 1560
1560 0 1560 0 0 1560 0 1560 1560 0 1560 0 0 1560 0 1560 1560 0 1560 0 0
1560 0 1560 1560 0 1560 0 0 1560 0 1560 1560 0 1560 0 0 1560 0 1560 1560 0
1560 0 0 1560 0 1560 1560 0 1560 0 0 1560 0 1560 1560 0 1560 0 0 1560 0
1560 1560 0 1560 0 0 1560 0 1560 1560 0 1560 0 0 1560 0 1560 1560 0 1560 0
0 1560 0 1560 1560 0 1560 0 0 1560 0 1560 1560 0 1560 0 0 1560 0 1560 3120
0 3120 0 0 -1560z"/>
</g>
</svg>
