<?xml version="1.0" standalone="no"?>
<!DOCTYPE svg PUBLIC "-//W3C//DTD SVG 20010904//EN"
 "http://www.w3.org/TR/2001/REC-SVG-20010904/DTD/svg10.dtd">
<svg version="1.0" xmlns="http://www.w3.org/2000/svg"
 width="9984.000000pt" height="9984.000000pt" viewBox="0 0 9984.000000 9984.000000"
 preserveAspectRatio="xMidYMid meet">

<g transform="translate(0.000000,9984.000000) scale(0.100000,-0.100000)"
fill="#000000" stroke="none">
<path d="M50997 99704 c-179 -42 -280 -71 -300 -86 -18 -12 -93 -66 -167 -119
-132 -96 -731 -693 -25041 -25006 l-24907 -24908 -106 -148 c-59 -82 -111
-158 -115 -170 -5 -12 -36 -142 -71 -289 l-63 -268 67 -282 66 -281 119 -166
119 -166 23544 -23541 23543 -23541 151 -106 151 -107 282 -66 282 -67 267 63
c147 34 277 66 289 71 12 5 89 56 170 115 l148 106 24908 24907 24908 24906
115 158 c63 87 119 168 123 180 5 12 37 142 71 289 l63 267 -67 282 -66 283
-120 165 -119 166 -23538 23536 -23538 23536 -155 111 -156 111 -275 65 c-152
36 -285 66 -295 65 -10 0 -140 -29 -287 -65z m22923 -25629 l22625 -22625
-23998 -23998 -23997 -23997 -22627 22628 -22628 22627 23995 23995 c13197
13197 23997 23995 24000 23995 3 0 10186 -10181 22630 -22625z"/>
</g>
</svg>
