<?xml version="1.0" standalone="no"?>
<!DOCTYPE svg PUBLIC "-//W3C//DTD SVG 20010904//EN"
 "http://www.w3.org/TR/2001/REC-SVG-20010904/DTD/svg10.dtd">
<svg version="1.0" xmlns="http://www.w3.org/2000/svg"
 width="9984.000000pt" height="9984.000000pt" viewBox="0 0 9984.000000 9984.000000"
 preserveAspectRatio="xMidYMid meet">

<g transform="translate(0.000000,9984.000000) scale(0.100000,-0.100000)"
fill="#000000" stroke="none">
<path d="M49326 99344 l-269 -64 -166 -119 -166 -119 -24331 -24334 c-13382
-13383 -24346 -24354 -24363 -24380 l-31 -47 0 -771 0 -771 31 -47 c40 -60
48564 -48589 48643 -48648 l58 -44 788 0 788 0 58 44 c33 24 11006 10992
24385 24372 l24326 24329 106 151 107 151 66 281 67 281 -67 282 -66 282 -119
166 -119 166 -24284 24281 -24283 24281 -151 106 -151 107 -275 65 c-152 36
-284 65 -294 64 -11 0 -140 -30 -288 -65z m23664 -26369 l23365 -23365 -23418
-23418 -23417 -23417 -23367 23368 -23368 23367 23415 23415 c12878 12878
23417 23415 23420 23415 3 0 10519 -10514 23370 -23365z"/>
</g>
</svg>
