<svg id="visual" viewBox="0 0 900 600" width="900" height="600" xmlns="http://www.w3.org/2000/svg" xmlns:xlink="http://www.w3.org/1999/xlink" version="1.1"><path d="M0 332L8.8 332.8C17.7 333.7 35.3 335.3 53 337.2C70.7 339 88.3 341 106 355C123.7 369 141.3 395 159 401.8C176.7 408.7 194.3 396.3 212 385.2C229.7 374 247.3 364 265 368.3C282.7 372.7 300.3 391.3 318 401.7C335.7 412 353.3 414 371 412.3C388.7 410.7 406.3 405.3 423.8 394.2C441.3 383 458.7 366 476.2 367C493.7 368 511.3 387 529 392.2C546.7 397.3 564.3 388.7 582 389.3C599.7 390 617.3 400 635 396.7C652.7 393.3 670.3 376.7 688 370.2C705.7 363.7 723.3 367.3 741 367.8C758.7 368.3 776.3 365.7 794 365.8C811.7 366 829.3 369 847 377.8C864.7 386.7 882.3 401.3 891.2 408.7L900 416L900 601L891.2 601C882.3 601 864.7 601 847 601C829.3 601 811.7 601 794 601C776.3 601 758.7 601 741 601C723.3 601 705.7 601 688 601C670.3 601 652.7 601 635 601C617.3 601 599.7 601 582 601C564.3 601 546.7 601 529 601C511.3 601 493.7 601 476.2 601C458.7 601 441.3 601 423.8 601C406.3 601 388.7 601 371 601C353.3 601 335.7 601 318 601C300.3 601 282.7 601 265 601C247.3 601 229.7 601 212 601C194.3 601 176.7 601 159 601C141.3 601 123.7 601 106 601C88.3 601 70.7 601 53 601C35.3 601 17.7 601 8.8 601L0 601Z" fill="#1c4c32"></path><path d="M0 392L8.8 395.3C17.7 398.7 35.3 405.3 53 405C70.7 404.7 88.3 397.3 106 394.3C123.7 391.3 141.3 392.7 159 398.2C176.7 403.7 194.3 413.3 212 418.3C229.7 423.3 247.3 423.7 265 421.3C282.7 419 300.3 414 318 412.7C335.7 411.3 353.3 413.7 371 406.3C388.7 399 406.3 382 423.8 380.3C441.3 378.7 458.7 392.3 476.2 395.2C493.7 398 511.3 390 529 395.3C546.7 400.7 564.3 419.3 582 428C599.7 436.7 617.3 435.3 635 434.5C652.7 433.7 670.3 433.3 688 423.2C705.7 413 723.3 393 741 393.3C758.7 393.7 776.3 414.3 794 420.5C811.7 426.7 829.3 418.3 847 411.5C864.7 404.7 882.3 399.3 891.2 396.7L900 394L900 601L891.2 601C882.3 601 864.7 601 847 601C829.3 601 811.7 601 794 601C776.3 601 758.7 601 741 601C723.3 601 705.7 601 688 601C670.3 601 652.7 601 635 601C617.3 601 599.7 601 582 601C564.3 601 546.7 601 529 601C511.3 601 493.7 601 476.2 601C458.7 601 441.3 601 423.8 601C406.3 601 388.7 601 371 601C353.3 601 335.7 601 318 601C300.3 601 282.7 601 265 601C247.3 601 229.7 601 212 601C194.3 601 176.7 601 159 601C141.3 601 123.7 601 106 601C88.3 601 70.7 601 53 601C35.3 601 17.7 601 8.8 601L0 601Z" fill="#1f593a"></path><path d="M0 414L8.8 410.7C17.7 407.3 35.3 400.7 53 399.5C70.7 398.3 88.3 402.7 106 407.5C123.7 412.3 141.3 417.7 159 415.8C176.7 414 194.3 405 212 403C229.7 401 247.3 406 265 404.3C282.7 402.7 300.3 394.3 318 398.7C335.7 403 353.3 420 371 430.3C388.7 440.7 406.3 444.3 423.8 448.5C441.3 452.7 458.7 457.3 476.2 458.5C493.7 459.7 511.3 457.3 529 446.3C546.7 435.3 564.3 415.7 582 407.3C599.7 399 617.3 402 635 406C652.7 410 670.3 415 688 420.2C705.7 425.3 723.3 430.7 741 436.2C758.7 441.7 776.3 447.3 794 448.3C811.7 449.3 829.3 445.7 847 434.8C864.7 424 882.3 406 891.2 397L900 388L900 601L891.2 601C882.3 601 864.7 601 847 601C829.3 601 811.7 601 794 601C776.3 601 758.7 601 741 601C723.3 601 705.7 601 688 601C670.3 601 652.7 601 635 601C617.3 601 599.7 601 582 601C564.3 601 546.7 601 529 601C511.3 601 493.7 601 476.2 601C458.7 601 441.3 601 423.8 601C406.3 601 388.7 601 371 601C353.3 601 335.7 601 318 601C300.3 601 282.7 601 265 601C247.3 601 229.7 601 212 601C194.3 601 176.7 601 159 601C141.3 601 123.7 601 106 601C88.3 601 70.7 601 53 601C35.3 601 17.7 601 8.8 601L0 601Z" fill="#226541"></path><path d="M0 445L8.8 451C17.7 457 35.3 469 53 464.2C70.7 459.3 88.3 437.7 106 428.7C123.7 419.7 141.3 423.3 159 429.2C176.7 435 194.3 443 212 442C229.7 441 247.3 431 265 427.5C282.7 424 300.3 427 318 437.3C335.7 447.7 353.3 465.3 371 471.3C388.7 477.3 406.3 471.7 423.8 468.5C441.3 465.3 458.7 464.7 476.2 457.2C493.7 449.7 511.3 435.3 529 436.5C546.7 437.7 564.3 454.3 582 454C599.7 453.7 617.3 436.3 635 430.2C652.7 424 670.3 429 688 436.3C705.7 443.7 723.3 453.3 741 451.5C758.7 449.7 776.3 436.3 794 439.3C811.7 442.3 829.3 461.7 847 460C864.7 458.3 882.3 435.7 891.2 424.3L900 413L900 601L891.2 601C882.3 601 864.7 601 847 601C829.3 601 811.7 601 794 601C776.3 601 758.7 601 741 601C723.3 601 705.7 601 688 601C670.3 601 652.7 601 635 601C617.3 601 599.7 601 582 601C564.3 601 546.7 601 529 601C511.3 601 493.7 601 476.2 601C458.7 601 441.3 601 423.8 601C406.3 601 388.7 601 371 601C353.3 601 335.7 601 318 601C300.3 601 282.7 601 265 601C247.3 601 229.7 601 212 601C194.3 601 176.7 601 159 601C141.3 601 123.7 601 106 601C88.3 601 70.7 601 53 601C35.3 601 17.7 601 8.8 601L0 601Z" fill="#257349"></path><path d="M0 473L8.8 477.8C17.7 482.7 35.3 492.3 53 490C70.7 487.7 88.3 473.3 106 472.5C123.7 471.7 141.3 484.3 159 483.8C176.7 483.3 194.3 469.7 212 471C229.7 472.3 247.3 488.7 265 496.7C282.7 504.7 300.3 504.3 318 494.5C335.7 484.7 353.3 465.3 371 460C388.7 454.7 406.3 463.3 423.8 468.8C441.3 474.3 458.7 476.7 476.2 474.8C493.7 473 511.3 467 529 462.7C546.7 458.3 564.3 455.7 582 453.8C599.7 452 617.3 451 635 456.2C652.7 461.3 670.3 472.7 688 481.8C705.7 491 723.3 498 741 492.3C758.7 486.7 776.3 468.3 794 462.8C811.7 457.3 829.3 464.7 847 466.8C864.7 469 882.3 466 891.2 464.5L900 463L900 601L891.2 601C882.3 601 864.7 601 847 601C829.3 601 811.7 601 794 601C776.3 601 758.7 601 741 601C723.3 601 705.7 601 688 601C670.3 601 652.7 601 635 601C617.3 601 599.7 601 582 601C564.3 601 546.7 601 529 601C511.3 601 493.7 601 476.2 601C458.7 601 441.3 601 423.8 601C406.3 601 388.7 601 371 601C353.3 601 335.7 601 318 601C300.3 601 282.7 601 265 601C247.3 601 229.7 601 212 601C194.3 601 176.7 601 159 601C141.3 601 123.7 601 106 601C88.3 601 70.7 601 53 601C35.3 601 17.7 601 8.8 601L0 601Z" fill="#288051"></path><path d="M0 505L8.8 500.2C17.7 495.3 35.3 485.7 53 488.5C70.7 491.3 88.3 506.7 106 512.7C123.7 518.7 141.3 515.3 159 511C176.7 506.7 194.3 501.3 212 499.8C229.7 498.3 247.3 500.7 265 500C282.7 499.3 300.3 495.7 318 496.5C335.7 497.3 353.3 502.7 371 502.8C388.7 503 406.3 498 423.8 499.2C441.3 500.3 458.7 507.7 476.2 509.8C493.7 512 511.3 509 529 501.2C546.7 493.3 564.3 480.7 582 482.7C599.7 484.7 617.3 501.3 635 504.2C652.7 507 670.3 496 688 490.2C705.7 484.3 723.3 483.7 741 484.5C758.7 485.3 776.3 487.7 794 490C811.7 492.3 829.3 494.7 847 491.7C864.7 488.7 882.3 480.3 891.2 476.2L900 472L900 601L891.2 601C882.3 601 864.7 601 847 601C829.3 601 811.7 601 794 601C776.3 601 758.7 601 741 601C723.3 601 705.7 601 688 601C670.3 601 652.7 601 635 601C617.3 601 599.7 601 582 601C564.3 601 546.7 601 529 601C511.3 601 493.7 601 476.2 601C458.7 601 441.3 601 423.8 601C406.3 601 388.7 601 371 601C353.3 601 335.7 601 318 601C300.3 601 282.7 601 265 601C247.3 601 229.7 601 212 601C194.3 601 176.7 601 159 601C141.3 601 123.7 601 106 601C88.3 601 70.7 601 53 601C35.3 601 17.7 601 8.8 601L0 601Z" fill="#2b8e59"></path><path d="M0 520L8.8 522.8C17.7 525.7 35.3 531.3 53 534.2C70.7 537 88.3 537 106 531.5C123.7 526 141.3 515 159 512.3C176.7 509.7 194.3 515.3 212 522.3C229.7 529.3 247.3 537.7 265 540.8C282.7 544 300.3 542 318 535.5C335.7 529 353.3 518 371 516.5C388.7 515 406.3 523 423.8 527.5C441.3 532 458.7 533 476.2 532.5C493.7 532 511.3 530 529 529.5C546.7 529 564.3 530 582 528C599.7 526 617.3 521 635 517.3C652.7 513.7 670.3 511.3 688 515.7C705.7 520 723.3 531 741 535.8C758.7 540.7 776.3 539.3 794 538.7C811.7 538 829.3 538 847 533.8C864.7 529.7 882.3 521.3 891.2 517.2L900 513L900 601L891.2 601C882.3 601 864.7 601 847 601C829.3 601 811.7 601 794 601C776.3 601 758.7 601 741 601C723.3 601 705.7 601 688 601C670.3 601 652.7 601 635 601C617.3 601 599.7 601 582 601C564.3 601 546.7 601 529 601C511.3 601 493.7 601 476.2 601C458.7 601 441.3 601 423.8 601C406.3 601 388.7 601 371 601C353.3 601 335.7 601 318 601C300.3 601 282.7 601 265 601C247.3 601 229.7 601 212 601C194.3 601 176.7 601 159 601C141.3 601 123.7 601 106 601C88.3 601 70.7 601 53 601C35.3 601 17.7 601 8.8 601L0 601Z" fill="#2f9c61"></path><path d="M0 545L8.8 542C17.7 539 35.3 533 53 531C70.7 529 88.3 531 106 536.3C123.7 541.7 141.3 550.3 159 555.8C176.7 561.3 194.3 563.7 212 563C229.7 562.3 247.3 558.7 265 556.3C282.7 554 300.3 553 318 549.8C335.7 546.7 353.3 541.3 371 537.8C388.7 534.3 406.3 532.7 423.8 531.2C441.3 529.7 458.7 528.3 476.2 529.8C493.7 531.3 511.3 535.7 529 541.8C546.7 548 564.3 556 582 554.5C599.7 553 617.3 542 635 542C652.7 542 670.3 553 688 555.7C705.7 558.3 723.3 552.7 741 548.7C758.7 544.7 776.3 542.3 794 542.5C811.7 542.7 829.3 545.3 847 545.3C864.7 545.3 882.3 542.7 891.2 541.3L900 540L900 601L891.2 601C882.3 601 864.7 601 847 601C829.3 601 811.7 601 794 601C776.3 601 758.7 601 741 601C723.3 601 705.7 601 688 601C670.3 601 652.7 601 635 601C617.3 601 599.7 601 582 601C564.3 601 546.7 601 529 601C511.3 601 493.7 601 476.2 601C458.7 601 441.3 601 423.8 601C406.3 601 388.7 601 371 601C353.3 601 335.7 601 318 601C300.3 601 282.7 601 265 601C247.3 601 229.7 601 212 601C194.3 601 176.7 601 159 601C141.3 601 123.7 601 106 601C88.3 601 70.7 601 53 601C35.3 601 17.7 601 8.8 601L0 601Z" fill="#32aa69"></path><path d="M0 582L8.8 577.2C17.7 572.3 35.3 562.7 53 561.3C70.7 560 88.3 567 106 568.2C123.7 569.3 141.3 564.7 159 563.3C176.7 562 194.3 564 212 562.5C229.7 561 247.3 556 265 554.7C282.7 553.3 300.3 555.7 318 560.7C335.7 565.7 353.3 573.3 371 576.2C388.7 579 406.3 577 423.8 575.8C441.3 574.7 458.7 574.3 476.2 576.3C493.7 578.3 511.3 582.7 529 581C546.7 579.3 564.3 571.7 582 568C599.7 564.3 617.3 564.7 635 565C652.7 565.3 670.3 565.7 688 563.7C705.7 561.7 723.3 557.3 741 555.5C758.7 553.7 776.3 554.3 794 559.8C811.7 565.3 829.3 575.7 847 576.8C864.7 578 882.3 570 891.2 566L900 562L900 601L891.2 601C882.3 601 864.7 601 847 601C829.3 601 811.7 601 794 601C776.3 601 758.7 601 741 601C723.3 601 705.7 601 688 601C670.3 601 652.7 601 635 601C617.3 601 599.7 601 582 601C564.3 601 546.7 601 529 601C511.3 601 493.7 601 476.2 601C458.7 601 441.3 601 423.8 601C406.3 601 388.7 601 371 601C353.3 601 335.7 601 318 601C300.3 601 282.7 601 265 601C247.3 601 229.7 601 212 601C194.3 601 176.7 601 159 601C141.3 601 123.7 601 106 601C88.3 601 70.7 601 53 601C35.3 601 17.7 601 8.8 601L0 601Z" fill="#36b971"></path></svg>