<?xml version="1.0" standalone="no"?>
<!DOCTYPE svg PUBLIC "-//W3C//DTD SVG 20010904//EN"
 "http://www.w3.org/TR/2001/REC-SVG-20010904/DTD/svg10.dtd">
<svg version="1.0" xmlns="http://www.w3.org/2000/svg"
 width="1042.000000pt" height="1042.000000pt" viewBox="0 0 1042.000000 1042.000000"
 preserveAspectRatio="xMidYMid meet">

<g transform="translate(0.000000,1042.000000) scale(0.100000,-0.100000)"
fill="#000000" stroke="none">
<path d="M5115 9473 c-463 -57 -755 -216 -755 -410 0 -68 36 -138 102 -198 68
-62 130 -96 264 -145 123 -45 200 -88 263 -150 62 -60 81 -103 81 -182 0 -202
-229 -352 -618 -403 -92 -12 -261 -15 -918 -15 l-804 0 0 -810 c0 -871 3 -939
51 -1129 38 -153 95 -267 175 -348 34 -35 68 -63 76 -63 9 0 20 24 31 70 82
340 308 676 607 902 120 90 334 201 475 247 491 158 1032 80 1457 -211 117
-79 288 -244 377 -362 78 -103 159 -240 198 -337 l27 -65 43 86 c106 217 301
411 520 515 226 109 536 158 852 136 179 -13 374 -46 456 -77 14 -6 15 70 13
717 l-3 724 -930 5 c-1015 6 -994 5 -1189 67 -190 60 -328 164 -360 273 -22
73 -20 116 8 175 38 82 109 137 294 226 191 92 260 137 330 214 75 82 87 137
48 220 -68 148 -341 276 -679 320 -107 14 -407 19 -492 8z"/>
<path d="M4890 6514 c0 -3 8 -18 19 -32 35 -51 114 -217 161 -343 77 -203 132
-417 160 -617 16 -121 14 -388 -5 -517 -45 -310 -181 -710 -311 -917 -13 -21
-24 -40 -24 -43 0 -3 69 -5 153 -5 l153 0 69 83 c192 231 336 528 395 815 105
518 -34 1053 -387 1490 l-75 92 -154 0 c-85 0 -154 -3 -154 -6z"/>
<path d="M4030 5670 l0 -270 285 0 285 0 0 270 0 270 -285 0 -285 0 0 -270z"/>
<path d="M4030 4760 l0 -270 111 0 c110 0 111 0 106 -22 -2 -13 -52 -128 -110
-256 l-106 -233 141 3 141 3 143 265 144 265 0 257 0 258 -285 0 -285 0 0
-270z"/>
<path d="M2989 4985 c-103 -76 -189 -256 -235 -491 -16 -80 -18 -180 -21
-1006 l-4 -917 888 -4 c785 -3 900 -5 991 -21 285 -48 482 -150 553 -286 18
-34 23 -62 24 -115 0 -133 -68 -204 -305 -318 -367 -175 -474 -312 -368 -472
75 -114 273 -212 535 -264 384 -77 841 -35 1129 104 370 179 313 470 -121 620
-111 38 -189 81 -253 140 -68 62 -92 111 -92 190 0 179 174 315 490 383 165
36 322 42 1116 42 l764 0 0 604 0 603 -82 -29 c-153 -54 -283 -71 -563 -72
-168 -1 -276 4 -330 13 -368 61 -620 210 -789 464 -61 92 -122 222 -151 322
l-17 58 -30 -54 c-243 -435 -634 -726 -1115 -831 -121 -26 -434 -36 -568 -19
-553 74 -1025 419 -1265 924 -66 140 -91 211 -123 355 l-23 102 -35 -25z"/>
</g>
</svg>
