<?xml version="1.0" standalone="no"?>
<!DOCTYPE svg PUBLIC "-//W3C//DTD SVG 20010904//EN"
 "http://www.w3.org/TR/2001/REC-SVG-20010904/DTD/svg10.dtd">
<svg version="1.0" xmlns="http://www.w3.org/2000/svg"
 width="9984.000000pt" height="9984.000000pt" viewBox="0 0 9984.000000 9984.000000"
 preserveAspectRatio="xMidYMid meet">

<g transform="translate(0.000000,9984.000000) scale(0.100000,-0.100000)"
fill="#000000" stroke="none">
<path d="M37430 98285 l0 -1555 -4680 0 -4680 0 0 -1560 0 -1560 -3120 0
-3120 0 0 -1560 0 -1560 -1560 0 -1560 0 0 -1560 0 -1560 -1560 0 -1560 0 0
-1560 0 -1560 -1560 0 -1560 0 0 -1560 0 -1560 -1560 0 -1560 0 0 -1560 0
-1560 -1560 0 -1560 0 0 -3120 0 -3120 -1560 0 -1560 0 0 -4680 0 -4680 -1555
0 -1555 0 0 -12480 0 -12480 1555 0 1555 0 0 -4680 0 -4680 1560 0 1560 0 0
-3120 0 -3120 1560 0 1560 0 0 -1560 0 -1560 1560 0 1560 0 0 -1560 0 -1560
1560 0 1560 0 0 -1560 0 -1560 1560 0 1560 0 0 -1560 0 -1560 1560 0 1560 0 0
-1560 0 -1560 3120 0 3120 0 0 -1560 0 -1560 4680 0 4680 0 0 -1565 0 -1565
10920 0 10920 0 0 1565 0 1565 6240 0 6240 0 0 1560 0 1560 3120 0 3120 0 0
1560 0 1560 1560 0 1560 0 0 1560 0 1560 1560 0 1560 0 0 1560 0 1560 1560 0
1560 0 0 1560 0 1560 1560 0 1560 0 0 1560 0 1560 1560 0 1560 0 0 3120 0
3120 1560 0 1560 0 0 4680 0 4680 1565 0 1565 0 0 12480 0 12480 -1565 0
-1565 0 0 4680 0 4680 -1560 0 -1560 0 0 3120 0 3120 -1560 0 -1560 0 0 1560
0 1560 -1560 0 -1560 0 0 1560 0 1560 -1560 0 -1560 0 0 1560 0 1560 -1560 0
-1560 0 0 1560 0 1560 -1560 0 -1560 0 0 1560 0 1560 -3120 0 -3120 0 0 1560
0 1560 -6240 0 -6240 0 0 1555 0 1555 -10920 0 -10920 0 0 -1555z m21840
-3115 l0 -1560 6240 0 6240 0 0 -1560 0 -1560 3120 0 3120 0 0 -1560 0 -1560
1560 0 1560 0 0 -1560 0 -1560 1560 0 1560 0 0 -1560 0 -1560 1560 0 1560 0 0
-1560 0 -1560 1560 0 1560 0 0 -3120 0 -3120 1560 0 1560 0 0 -4680 0 -4680
1560 0 1560 0 0 -12480 0 -12480 -1560 0 -1560 0 0 -4680 0 -4680 -1560 0
-1560 0 0 -3120 0 -3120 -1560 0 -1560 0 0 -1560 0 -1560 -1560 0 -1560 0 0
-1560 0 -1560 -1560 0 -1560 0 0 -1560 0 -1560 -1560 0 -1560 0 0 -1560 0
-1560 -3120 0 -3120 0 0 -1560 0 -1560 -6240 0 -6240 0 0 -1560 0 -1560
-10920 0 -10920 0 0 1560 0 1560 -4680 0 -4680 0 0 1560 0 1560 -3120 0 -3120
0 0 1560 0 1560 -1560 0 -1560 0 0 1560 0 1560 -1560 0 -1560 0 0 1560 0 1560
-1560 0 -1560 0 0 1560 0 1560 -1560 0 -1560 0 0 3120 0 3120 -1560 0 -1560 0
0 4680 0 4680 -1560 0 -1560 0 0 12480 0 12480 1560 0 1560 0 0 4680 0 4680
1560 0 1560 0 0 3120 0 3120 1560 0 1560 0 0 1560 0 1560 1560 0 1560 0 0
1560 0 1560 1560 0 1560 0 0 1560 0 1560 1560 0 1560 0 0 1560 0 1560 3120 0
3120 0 0 1560 0 1560 4680 0 4680 0 0 1560 0 1560 10920 0 10920 0 0 -1560z"/>
<path d="M43670 82690 l0 -1560 1560 0 1560 0 0 -14040 0 -14040 -14040 0
-14040 0 0 1560 0 1560 -1560 0 -1560 0 0 -4680 0 -4680 1560 0 1560 0 0 1560
0 1560 14040 0 14040 0 0 -15600 0 -15600 -1560 0 -1560 0 0 -1560 0 -1560
4680 0 4680 0 0 1560 0 1560 -1560 0 -1560 0 0 15600 0 15600 15600 0 15600 0
0 -1560 0 -1560 1560 0 1560 0 0 4680 0 4680 -1560 0 -1560 0 0 -1560 0 -1560
-15600 0 -15600 0 0 14040 0 14040 1560 0 1560 0 0 1560 0 1560 -4680 0 -4680
0 0 -1560z"/>
</g>
</svg>
