<svg id="visual" viewBox="0 0 675 900" width="675" height="900" xmlns="http://www.w3.org/2000/svg" xmlns:xlink="http://www.w3.org/1999/xlink" version="1.1"><path d="M0 109L29 109L29 37L59 37L59 73L88 73L88 28L117 28L117 55L147 55L147 64L176 64L176 100L205 100L205 55L235 55L235 55L264 55L264 145L293 145L293 109L323 109L323 73L352 73L352 109L382 109L382 28L411 28L411 19L440 19L440 100L470 100L470 19L499 19L499 19L528 19L528 19L558 19L558 10L587 10L587 37L616 37L616 118L646 118L646 19L675 19L675 100L675 0L675 0L646 0L646 0L616 0L616 0L587 0L587 0L558 0L558 0L528 0L528 0L499 0L499 0L470 0L470 0L440 0L440 0L411 0L411 0L382 0L382 0L352 0L352 0L323 0L323 0L293 0L293 0L264 0L264 0L235 0L235 0L205 0L205 0L176 0L176 0L147 0L147 0L117 0L117 0L88 0L88 0L59 0L59 0L29 0L29 0L0 0Z" fill="#207948"></path><path d="M0 118L29 118L29 73L59 73L59 154L88 154L88 82L117 82L117 127L147 127L147 145L176 145L176 181L205 181L205 109L235 109L235 154L264 154L264 163L293 163L293 136L323 136L323 82L352 82L352 163L382 163L382 109L411 109L411 100L440 100L440 208L470 208L470 73L499 73L499 91L528 91L528 73L558 73L558 46L587 46L587 64L616 64L616 127L646 127L646 136L675 136L675 136L675 98L675 17L646 17L646 116L616 116L616 35L587 35L587 8L558 8L558 17L528 17L528 17L499 17L499 17L470 17L470 98L440 98L440 17L411 17L411 26L382 26L382 107L352 107L352 71L323 71L323 107L293 107L293 143L264 143L264 53L235 53L235 53L205 53L205 98L176 98L176 62L147 62L147 53L117 53L117 26L88 26L88 71L59 71L59 35L29 35L29 107L0 107Z" fill="#1e6f43"></path><path d="M0 172L29 172L29 163L59 163L59 190L88 190L88 91L117 91L117 181L147 181L147 208L176 208L176 253L205 253L205 199L235 199L235 163L264 163L264 172L293 172L293 181L323 181L323 109L352 109L352 208L382 208L382 208L411 208L411 172L440 172L440 208L470 208L470 127L499 127L499 109L528 109L528 145L558 145L558 127L587 127L587 64L616 64L616 145L646 145L646 181L675 181L675 172L675 134L675 134L646 134L646 125L616 125L616 62L587 62L587 44L558 44L558 71L528 71L528 89L499 89L499 71L470 71L470 206L440 206L440 98L411 98L411 107L382 107L382 161L352 161L352 80L323 80L323 134L293 134L293 161L264 161L264 152L235 152L235 107L205 107L205 179L176 179L176 143L147 143L147 125L117 125L117 80L88 80L88 152L59 152L59 71L29 71L29 116L0 116Z" fill="#1c663e"></path><path d="M0 217L29 217L29 199L59 199L59 235L88 235L88 145L117 145L117 181L147 181L147 289L176 289L176 289L205 289L205 208L235 208L235 199L264 199L264 208L293 208L293 253L323 253L323 145L352 145L352 280L382 280L382 235L411 235L411 235L440 235L440 262L470 262L470 154L499 154L499 190L528 190L528 190L558 190L558 208L587 208L587 118L616 118L616 154L646 154L646 226L675 226L675 226L675 170L675 179L646 179L646 143L616 143L616 62L587 62L587 125L558 125L558 143L528 143L528 107L499 107L499 125L470 125L470 206L440 206L440 170L411 170L411 206L382 206L382 206L352 206L352 107L323 107L323 179L293 179L293 170L264 170L264 161L235 161L235 197L205 197L205 251L176 251L176 206L147 206L147 179L117 179L117 89L88 89L88 188L59 188L59 161L29 161L29 170L0 170Z" fill="#1b5d39"></path><path d="M0 388L29 388L29 460L59 460L59 352L88 352L88 154L117 154L117 325L147 325L147 415L176 415L176 397L205 397L205 235L235 235L235 262L264 262L264 307L293 307L293 487L323 487L323 253L352 253L352 343L382 343L382 388L411 388L411 370L440 370L440 424L470 424L470 343L499 343L499 280L528 280L528 316L558 316L558 217L587 217L587 244L616 244L616 334L646 334L646 253L675 253L675 316L675 224L675 224L646 224L646 152L616 152L616 116L587 116L587 206L558 206L558 188L528 188L528 188L499 188L499 152L470 152L470 260L440 260L440 233L411 233L411 233L382 233L382 278L352 278L352 143L323 143L323 251L293 251L293 206L264 206L264 197L235 197L235 206L205 206L205 287L176 287L176 287L147 287L147 179L117 179L117 143L88 143L88 233L59 233L59 197L29 197L29 215L0 215Z" fill="#195434"></path><path d="M0 505L29 505L29 460L59 460L59 379L88 379L88 217L117 217L117 406L147 406L147 505L176 505L176 424L205 424L205 253L235 253L235 307L264 307L264 451L293 451L293 514L323 514L323 334L352 334L352 361L382 361L382 406L411 406L411 379L440 379L440 541L470 541L470 433L499 433L499 316L528 316L528 469L558 469L558 253L587 253L587 343L616 343L616 388L646 388L646 280L675 280L675 415L675 314L675 251L646 251L646 332L616 332L616 242L587 242L587 215L558 215L558 314L528 314L528 278L499 278L499 341L470 341L470 422L440 422L440 368L411 368L411 386L382 386L382 341L352 341L352 251L323 251L323 485L293 485L293 305L264 305L264 260L235 260L235 233L205 233L205 395L176 395L176 413L147 413L147 323L117 323L117 152L88 152L88 350L59 350L59 458L29 458L29 386L0 386Z" fill="#174a2e"></path><path d="M0 595L29 595L29 460L59 460L59 496L88 496L88 424L117 424L117 451L147 451L147 604L176 604L176 604L205 604L205 316L235 316L235 451L264 451L264 577L293 577L293 559L323 559L323 442L352 442L352 397L382 397L382 469L411 469L411 577L440 577L440 640L470 640L470 514L499 514L499 451L528 451L528 559L558 559L558 388L587 388L587 514L616 514L616 415L646 415L646 370L675 370L675 487L675 413L675 278L646 278L646 386L616 386L616 341L587 341L587 251L558 251L558 467L528 467L528 314L499 314L499 431L470 431L470 539L440 539L440 377L411 377L411 404L382 404L382 359L352 359L352 332L323 332L323 512L293 512L293 449L264 449L264 305L235 305L235 251L205 251L205 422L176 422L176 503L147 503L147 404L117 404L117 215L88 215L88 377L59 377L59 458L29 458L29 503L0 503Z" fill="#154229"></path><path d="M0 775L29 775L29 577L59 577L59 649L88 649L88 658L117 658L117 730L147 730L147 640L176 640L176 847L205 847L205 397L235 397L235 739L264 739L264 604L293 604L293 676L323 676L323 478L352 478L352 541L382 541L382 532L411 532L411 748L440 748L440 757L470 757L470 811L499 811L499 775L528 775L528 856L558 856L558 865L587 865L587 829L616 829L616 433L646 433L646 478L675 478L675 505L675 485L675 368L646 368L646 413L616 413L616 512L587 512L587 386L558 386L558 557L528 557L528 449L499 449L499 512L470 512L470 638L440 638L440 575L411 575L411 467L382 467L382 395L352 395L352 440L323 440L323 557L293 557L293 575L264 575L264 449L235 449L235 314L205 314L205 602L176 602L176 602L147 602L147 449L117 449L117 422L88 422L88 494L59 494L59 458L29 458L29 593L0 593Z" fill="#133924"></path><path d="M0 811L29 811L29 829L59 829L59 793L88 793L88 874L117 874L117 883L147 883L147 802L176 802L176 901L205 901L205 901L235 901L235 793L264 793L264 901L293 901L293 892L323 892L323 865L352 865L352 811L382 811L382 811L411 811L411 865L440 865L440 820L470 820L470 838L499 838L499 901L528 901L528 865L558 865L558 901L587 901L587 847L616 847L616 856L646 856L646 847L675 847L675 883L675 503L675 476L646 476L646 431L616 431L616 827L587 827L587 863L558 863L558 854L528 854L528 773L499 773L499 809L470 809L470 755L440 755L440 746L411 746L411 530L382 530L382 539L352 539L352 476L323 476L323 674L293 674L293 602L264 602L264 737L235 737L235 395L205 395L205 845L176 845L176 638L147 638L147 728L117 728L117 656L88 656L88 647L59 647L59 575L29 575L29 773L0 773Z" fill="#11301f"></path><path d="M0 901L29 901L29 901L59 901L59 901L88 901L88 901L117 901L117 901L147 901L147 901L176 901L176 901L205 901L205 901L235 901L235 901L264 901L264 901L293 901L293 901L323 901L323 901L352 901L352 901L382 901L382 901L411 901L411 901L440 901L440 901L470 901L470 901L499 901L499 901L528 901L528 901L558 901L558 901L587 901L587 901L616 901L616 901L646 901L646 901L675 901L675 901L675 881L675 845L646 845L646 854L616 854L616 845L587 845L587 899L558 899L558 863L528 863L528 899L499 899L499 836L470 836L470 818L440 818L440 863L411 863L411 809L382 809L382 809L352 809L352 863L323 863L323 890L293 890L293 899L264 899L264 791L235 791L235 899L205 899L205 899L176 899L176 800L147 800L147 881L117 881L117 872L88 872L88 791L59 791L59 827L29 827L29 809L0 809Z" fill="#0f281a"></path></svg>